<?xml version="1.0" encoding="utf-8"?>
<!-- Generator: Adobe Illustrator 24.1.1, SVG Export Plug-In . SVG Version: 6.00 Build 0)  -->
<svg version="1.1" id="Layer_1" xmlns="http://www.w3.org/2000/svg" xmlns:xlink="http://www.w3.org/1999/xlink" x="0px" y="0px"
	 viewBox="0 0 483.36 483.36" style="enable-background:new 0 0 483.36 483.36;" xml:space="preserve">
<style type="text/css">
	.st0{fill:#FFFFFF;}
</style>
<path class="st0" d="M483.36,448.01L360.98,325.63c61.64-79.1,56.11-193.92-16.58-266.62c-78.68-78.68-206.71-78.68-285.39,0
	c-78.68,78.68-78.68,206.71,0,285.39c39.34,39.34,91.02,59.01,142.69,59.01c43.81,0,87.63-14.15,123.92-42.43l122.38,122.38
	L483.36,448.01z M94.37,309.04c-59.19-59.19-59.19-155.49,0-214.68c29.59-29.59,68.47-44.39,107.34-44.39s77.74,14.8,107.34,44.39
	c59.19,59.19,59.19,155.49,0,214.68C249.86,368.23,153.55,368.23,94.37,309.04z"/>
<polygon class="st0" points="299.97,176.7 226.71,176.7 226.71,103.44 176.7,103.44 176.7,176.7 103.44,176.7 103.44,226.7 
	176.7,226.7 176.7,299.97 226.71,299.97 226.71,226.7 299.97,226.7 "/>
</svg>
