<svg xmlns="http://www.w3.org/2000/svg" viewBox="0 0 236.92 47.12" enable-background="new 0 0 236.92 47.12"><style type="text/css">.st0{fill:#FFFFFF;}</style><path class="st0" d="M40.09 6.81c.03.03-2.11-1.82-10.14 6.2 4.91 5.81 14.68 20.25 11.92 25.35 3.27-4.04 5.23-9.19 5.23-14.8 0-6.55-2.68-12.48-7.01-16.75l-.02-.02m-32.03 34.5c4.15 3.63 9.57 5.83 15.51 5.83 5.94 0 11.36-2.2 15.51-5.82h.01-.01c3.69-3.76-8.47-17.1-15.51-22.42-7.03 5.31-19.2 18.65-15.51 22.41m-1.02-34.5l-.02.02c-4.33 4.27-7 10.2-7 16.76 0 5.61 1.96 10.75 5.23 14.8-2.76-5.11 7.02-19.54 11.92-25.35-8.04-8.03-10.17-6.19-10.15-6.21m16.56-6.81c4.58 0 9.04 1.26 13.28 4.1-.14-.09-1.21-.73-2.99-.67-4.51.16-10.29 3.53-10.29 3.53h-.02s-5.78-3.37-10.29-3.53c-1.77-.07-2.85.58-2.98.67 4.24-2.84 8.7-4.1 13.28-4.1h.01zM151.55 38.06l-9.04-12.28-9.04 12.28h-3.72l10.87-14.83-9.93-13.49h3.72l8.1 11 8.09-11h3.72l-9.93 13.49 10.88 14.83zM81.06 38.06l-10.88-14.83 9.93-13.49h-3.72l-8.1 11-8.09-11h-3.71l9.93 13.49-10.88 14.83h3.72l9.04-12.28 9.04 12.28zM101.76 24.3c-.59-.5-1.23-.89-1.85-1.18 2.06-1.12 3.4-3.22 3.4-5.67 0-1.81-.67-7.7-9.21-7.7h-11.5v12.21h-3.83c-.5.65-1.62 2.2-2.05 2.84h5.89v13.26h11.5c6.23 0 10.1-3.17 10.1-8.27 0-2.23-.84-4.12-2.45-5.49zm-15.97-11.6h8.32c2.25 0 6.02.56 6.02 4.5 0 2.98-2.2 4.75-6.02 4.75h-8.32v-9.25zm8.32 22.41h-8.32v-10.31h8.32c3.16 0 6.93.87 6.93 4.93 0 4.68-4.34 5.38-6.93 5.38zM119.16 9.09c-7.95 0-13.51 6.08-13.51 14.79 0 8.72 5.56 14.8 13.51 14.8s13.49-6.08 13.49-14.8c0-8.71-5.54-14.79-13.49-14.79zm0 26.6c-6.06 0-10.3-4.86-10.3-11.81s4.24-11.8 10.3-11.8c6.05 0 10.27 4.86 10.27 11.8.01 6.95-4.22 11.81-10.27 11.81zM210.22 9.74v23.24l-17.11-23.25-2.81-.01v28.29h3.15v-22.72l16.77 22.74 3.15.01v-28.3zM173.94 9.09c-7.96 0-13.52 6.08-13.52 14.79 0 8.72 5.56 14.81 13.52 14.81 7.95 0 13.49-6.08 13.49-14.81 0-8.71-5.55-14.79-13.49-14.79zm0 26.6c-6.06 0-10.31-4.86-10.31-11.81s4.25-11.8 10.31-11.8c6.05 0 10.27 4.86 10.27 11.8 0 6.95-4.22 11.81-10.27 11.81zM220.09 35.27v-10.47h15.57v-2.77h-15.57v-9.54h16.63v-2.76h-19.8v28.31h20v-2.77z"/></svg>