<?xml version="1.0" encoding="utf-8"?>
<!-- Generator: Adobe Illustrator 24.1.1, SVG Export Plug-In . SVG Version: 6.00 Build 0)  -->
<svg version="1.1" id="Layer_1" xmlns="http://www.w3.org/2000/svg" xmlns:xlink="http://www.w3.org/1999/xlink" x="0px" y="0px"
	 viewBox="0 0 236.92 47.12" style="enable-background:new 0 0 236.92 47.12;" xml:space="preserve">
<style type="text/css">
	.st0{fill:#FFFFFF;}
</style>
<g>
	<path class="st0" d="M40.09,6.81c0.03,0.03-2.11-1.82-10.14,6.2c4.91,5.81,14.68,20.25,11.92,25.35v0v0c0,0,0,0,0,0
		c3.27-4.04,5.23-9.19,5.23-14.8C47.1,17.01,44.42,11.08,40.09,6.81L40.09,6.81c0,0,0-0.01-0.02-0.02 M8.04,41.29
		C8.04,41.29,8.04,41.29,8.04,41.29L8.04,41.29c4.15,3.63,9.57,5.83,15.51,5.83c5.94,0,11.36-2.2,15.51-5.82l0,0c0,0,0,0,0.01,0
		l-0.01,0c3.69-3.76-8.47-17.1-15.51-22.42C16.52,24.19,4.35,37.53,8.04,41.29 M7.02,6.79C7.01,6.8,7,6.81,7,6.81v0
		c-4.33,4.27-7,10.2-7,16.76c0,5.61,1.96,10.75,5.23,14.8c0,0,0,0,0,0v0v0c-2.76-5.11,7.02-19.54,11.92-25.35
		C9.11,4.99,6.98,6.83,7,6.81 M23.56,0c4.58,0,9.04,1.26,13.28,4.1c-0.14-0.09-1.21-0.73-2.99-0.67
		c-4.51,0.16-10.29,3.53-10.29,3.53l-0.01,0l-0.01,0c0,0-5.78-3.37-10.29-3.53c-1.77-0.07-2.85,0.58-2.98,0.67
		C14.51,1.26,18.97,0,23.55,0H23.56C23.55,0,23.56,0,23.56,0z"/>
	<polygon class="st0" points="151.55,38.06 142.51,25.78 133.47,38.06 129.75,38.06 140.62,23.23 130.69,9.74 134.41,9.74 
		142.51,20.74 150.6,9.74 154.32,9.74 144.39,23.23 155.27,38.06 	"/>
	<polygon class="st0" points="81.06,38.06 70.18,23.23 80.11,9.74 76.39,9.74 68.29,20.74 60.2,9.74 56.49,9.74 66.42,23.23 
		55.54,38.06 59.26,38.06 68.3,25.78 77.34,38.06 	"/>
	<path class="st0" d="M101.76,24.3c-0.59-0.5-1.23-0.89-1.85-1.18c2.06-1.12,3.4-3.22,3.4-5.67c0-1.81-0.67-7.7-9.21-7.7h-11.5
		v12.21c0,0-3.7,0-3.83,0c-0.5,0.65-1.62,2.2-2.05,2.84c0.4,0,5.89,0,5.89,0v13.26l11.5,0c6.23,0,10.1-3.17,10.1-8.27
		C104.21,27.56,103.37,25.67,101.76,24.3z M85.79,12.7c1.29,0,8.32,0,8.32,0c2.25,0,6.02,0.56,6.02,4.5c0,2.98-2.2,4.75-6.02,4.75
		c0,0-7.03,0-8.32,0V12.7z M94.11,35.11c0,0-7.03,0-8.32,0V24.8c1.29,0,8.32,0,8.32,0c3.16,0,6.93,0.87,6.93,4.93
		C101.04,34.41,96.7,35.11,94.11,35.11z"/>
	<path class="st0" d="M119.16,9.09c-7.95,0-13.51,6.08-13.51,14.79c0,8.72,5.56,14.8,13.51,14.8c7.95,0,13.49-6.08,13.49-14.8
		C132.65,15.17,127.11,9.09,119.16,9.09z M119.16,35.69c-6.06,0-10.3-4.86-10.3-11.81c0-6.95,4.24-11.8,10.3-11.8
		c6.05,0,10.27,4.86,10.27,11.8C129.44,30.83,125.21,35.69,119.16,35.69z"/>
	<polygon class="st0" points="210.22,9.74 210.22,32.98 193.11,9.73 190.3,9.72 190.3,38.01 193.45,38.01 193.45,15.29 
		210.22,38.03 213.37,38.04 213.37,9.74 	"/>
	<path class="st0" d="M173.94,9.09c-7.96,0-13.52,6.08-13.52,14.79c0,8.72,5.56,14.81,13.52,14.81c7.95,0,13.49-6.08,13.49-14.81
		C187.43,15.17,181.88,9.09,173.94,9.09z M173.94,35.69c-6.06,0-10.31-4.86-10.31-11.81c0-6.95,4.25-11.8,10.31-11.8
		c6.05,0,10.27,4.86,10.27,11.8C184.21,30.83,179.99,35.69,173.94,35.69z"/>
	<polygon class="st0" points="220.09,35.27 220.09,24.8 235.66,24.8 235.66,22.03 220.09,22.03 220.09,12.49 236.72,12.49 
		236.72,9.73 216.92,9.73 216.92,38.04 236.92,38.04 236.92,35.27 	"/>
</g>
</svg>
