<svg xmlns="http://www.w3.org/2000/svg" viewBox="0 0 646 194.76" enable-background="new 0 0 646 194.76"><style type="text/css">.st0{fill:#FFFFFF;}</style><path class="st0" d="M97.04 0c-51.15 0-93.06 39.44-97.04 89.57l52.19 21.58c4.42-3.02 9.76-4.79 15.51-4.79.52 0 1.03.01 1.54.04l23.21-33.64v-.48c0-20.25 16.47-36.73 36.73-36.73 20.25 0 36.72 16.48 36.72 36.73 0 20.25-16.47 36.73-36.72 36.73l-.83-.01-33.1 23.62c.02.43.03.87.03 1.3 0 15.2-12.37 27.57-27.56 27.57-13.34 0-24.5-9.53-27.03-22.14l-37.34-15.43c11.56 40.87 49.11 70.84 93.69 70.84 53.78 0 97.38-43.6 97.38-97.38 0-53.78-43.59-97.38-97.38-97.38zM61.03 147.76l-11.96-4.94c2.12 4.41 5.79 8.11 10.66 10.14 10.53 4.39 22.66-.61 27.05-11.14 2.12-5.1 2.14-10.72.03-15.83-2.1-5.11-6.07-9.09-11.17-11.22-5.06-2.11-10.48-2.03-15.25-.23l12.36 5.11c7.76 3.24 11.43 12.15 8.2 19.92-3.24 7.75-12.16 11.43-19.92 8.19zM153.65 72.28c0-13.49-10.98-24.47-24.47-24.47s-24.48 10.98-24.48 24.47 10.98 24.47 24.47 24.47 24.48-10.98 24.48-24.47zm-42.82-.04c0-10.15 8.23-18.38 18.38-18.38 10.15 0 18.38 8.23 18.38 18.38 0 10.15-8.23 18.38-18.38 18.38-10.14 0-18.38-8.23-18.38-18.38zM298.42 66.63l-6.52 11.47c-5.03-3.51-11.84-5.62-17.78-5.62-6.8 0-11 2.81-11 7.85 0 6.12 7.47 7.55 18.57 11.53 11.93 4.22 18.79 9.18 18.79 20.11 0 14.95-11.76 23.35-28.66 23.35-8.24 0-18.17-2.13-25.81-6.77l4.76-12.72c6.21 3.28 13.63 5.22 20.25 5.22 8.92 0 13.16-3.29 13.16-8.16 0-5.57-6.47-7.24-16.9-10.7-11.89-3.97-20.13-9.18-20.13-21.28 0-13.64 10.93-21.48 26.64-21.48 10.94.01 19.75 3.49 24.63 7.2zM349.43 73.88v60.18h-15.36v-60.18h-22.3v-13.18h59.9v13.18h-22.24zM404.05 73.84v16.53h29.4v13.18h-29.4v17.22h34.11v13.3h-49.47v-73.37h49.47v13.14h-34.11zM472.45 119.82l-4.86 14.24h-16.1l27.51-73.36h15.46l28.28 73.36h-16.65l-4.96-14.24h-28.68zm14.19-41.62l-10.02 29.37h20.24l-10.22-29.37zM601.58 89.05l-20.07 42.87h-8.67l-19.75-42.48v44.62h-14.71v-73.36h14.68l24.66 52.96 23.78-52.96h14.81v73.36h-14.71l-.02-45.01zM646 69.95c0 6.3-4.73 10.23-10.15 10.23-5.44 0-10.18-3.93-10.18-10.23 0-6.3 4.74-10.21 10.18-10.21 5.42.01 10.15 3.91 10.15 10.21zm-18.62 0c0 5.27 3.8 8.59 8.47 8.59 4.66 0 8.44-3.31 8.44-8.59 0-5.29-3.78-8.55-8.44-8.55s-8.47 3.3-8.47 8.55zm8.62-5.21c2.63 0 3.51 1.39 3.51 2.89 0 1.38-.82 2.3-1.81 2.77l2.36 4.42h-1.93l-1.99-3.92h-2.05v3.92h-1.61v-10.08h3.52zm-1.9 4.69h1.8c1.16 0 1.84-.73 1.84-1.64 0-.92-.49-1.52-1.85-1.52h-1.79v3.16z"/></svg>