<?xml version="1.0" encoding="utf-8"?>
<!-- Generator: Adobe Illustrator 24.1.1, SVG Export Plug-In . SVG Version: 6.00 Build 0)  -->
<svg version="1.1" id="Layer_1" xmlns="http://www.w3.org/2000/svg" xmlns:xlink="http://www.w3.org/1999/xlink" x="0px" y="0px"
	 viewBox="0 0 646 194.76" style="enable-background:new 0 0 646 194.76;" xml:space="preserve">
<style type="text/css">
	.st0{fill:#FFFFFF;}
</style>
<g>
	<g>
		<path class="st0" d="M97.04,0C45.89,0,3.98,39.44,0,89.57l52.19,21.58c4.42-3.02,9.76-4.79,15.51-4.79c0.52,0,1.03,0.01,1.54,0.04
			l23.21-33.64c0-0.16,0-0.32,0-0.48c0-20.25,16.47-36.73,36.73-36.73c20.25,0,36.72,16.48,36.72,36.73
			c0,20.25-16.47,36.73-36.72,36.73c-0.28,0-0.56-0.01-0.83-0.01l-33.1,23.62c0.02,0.43,0.03,0.87,0.03,1.3
			c0,15.2-12.37,27.57-27.56,27.57c-13.34,0-24.5-9.53-27.03-22.14L3.35,123.92c11.56,40.87,49.11,70.84,93.69,70.84
			c53.78,0,97.38-43.6,97.38-97.38C194.42,43.6,150.83,0,97.04,0z"/>
		<path class="st0" d="M61.03,147.76l-11.96-4.94c2.12,4.41,5.79,8.11,10.66,10.14c10.53,4.39,22.66-0.61,27.05-11.14
			c2.12-5.1,2.14-10.72,0.03-15.83c-2.1-5.11-6.07-9.09-11.17-11.22c-5.06-2.11-10.48-2.03-15.25-0.23l12.36,5.11
			c7.76,3.24,11.43,12.15,8.2,19.92C77.71,147.32,68.79,151,61.03,147.76z"/>
		<path class="st0" d="M153.65,72.28c0-13.49-10.98-24.47-24.47-24.47S104.7,58.79,104.7,72.28s10.98,24.47,24.47,24.47
			S153.65,85.77,153.65,72.28z M110.83,72.24c0-10.15,8.23-18.38,18.38-18.38c10.15,0,18.38,8.23,18.38,18.38
			c0,10.15-8.23,18.38-18.38,18.38C119.07,90.62,110.83,82.39,110.83,72.24z"/>
	</g>
	<g>
		<path class="st0" d="M298.42,66.63L291.9,78.1c-5.03-3.51-11.84-5.62-17.78-5.62c-6.8,0-11,2.81-11,7.85
			c0,6.12,7.47,7.55,18.57,11.53c11.93,4.22,18.79,9.18,18.79,20.11c0,14.95-11.76,23.35-28.66,23.35c-8.24,0-18.17-2.13-25.81-6.77
			l4.76-12.72c6.21,3.28,13.63,5.22,20.25,5.22c8.92,0,13.16-3.29,13.16-8.16c0-5.57-6.47-7.24-16.9-10.7
			c-11.89-3.97-20.13-9.18-20.13-21.28c0-13.64,10.93-21.48,26.64-21.48C284.73,59.44,293.54,62.92,298.42,66.63z"/>
		<path class="st0" d="M349.43,73.88v60.18h-15.36V73.88h-22.3V60.7h59.9v13.18H349.43z"/>
		<path class="st0" d="M404.05,73.84v16.53h29.4v13.18h-29.4v17.22h34.11v13.3h-49.47V60.7h49.47v13.14H404.05z"/>
		<path class="st0" d="M472.45,119.82l-4.86,14.24h-16.1l27.51-73.36h15.46l28.28,73.36h-16.65l-4.96-14.24H472.45z M486.64,78.2
			l-10.02,29.37h20.24L486.64,78.2z"/>
		<path class="st0" d="M601.58,89.05l-20.07,42.87h-8.67l-19.75-42.48v44.62h-14.71V60.7h14.68l24.66,52.96l23.78-52.96h14.81v73.36
			h-14.71L601.58,89.05z"/>
		<path class="st0" d="M646,69.95c0,6.3-4.73,10.23-10.15,10.23c-5.44,0-10.18-3.93-10.18-10.23c0-6.3,4.74-10.21,10.18-10.21
			C641.27,59.75,646,63.65,646,69.95z M627.38,69.95c0,5.27,3.8,8.59,8.47,8.59c4.66,0,8.44-3.31,8.44-8.59
			c0-5.29-3.78-8.55-8.44-8.55C631.19,61.4,627.38,64.7,627.38,69.95z M636,64.74c2.63,0,3.51,1.39,3.51,2.89
			c0,1.38-0.82,2.3-1.81,2.77l2.36,4.42h-1.93l-1.99-3.92h-2.05v3.92h-1.61V64.74H636z M634.1,69.43h1.8c1.16,0,1.84-0.73,1.84-1.64
			c0-0.92-0.49-1.52-1.85-1.52h-1.79V69.43z"/>
	</g>
</g>
</svg>
