<svg xmlns="http://www.w3.org/2000/svg" viewBox="0 0 126.97 23.96" enable-background="new 0 0 126.97 23.96"><style type="text/css">.st0{fill:#FFFFFF;}</style><path class="st0" d="M9.85 8.92c10.27-4.63 19.24-1.84 24.04.5.45.22.99-.01 1.15-.48l1.4-4.21c.16-.49-.06-1.03-.53-1.26-5.92-2.89-19.96-7.5-35.47 3.41-.4.28-.55.81-.35 1.26l3.27 7.37c.22.5.79.74 1.3.55 3.75-1.37 9.41-2.81 15.28-1.96-3.97.67-7.17 2.07-9.62 3.58-.44.27-.61.82-.41 1.29l2.01 4.61c.18.41.71.5 1.02.18.75-.8 1.59-1.38 2.27-1.77 3.17-1.84 7.56-3.21 13.49-2.89.46.02.89-.26 1.03-.7l1.5-4.49c.15-.45-.02-.94-.42-1.2-4.4-2.78-11.17-5.09-20.98-3.78l.02-.01zM66.71 19.88h-2.04c-.32 0-.58-.26-.58-.58v-11.83h-5.01c-.32 0-.58-.26-.58-.58v-1.83c0-.32.26-.58.58-.58h13.22c.32 0 .58.26.58.58v1.83c0 .32-.26.58-.58.58h-5.01v11.83c0 .32-.26.58-.58.58zM53.52 19.88h-9.19c-.32 0-.58-.26-.58-.58v-1.83c0-.32.26-.58.58-.58h9.76c.54 0 .97-.43.97-.97v-1.33c0-.54-.43-.97-.97-.97h-6.5c-1.78 0-2.84-.32-3.63-1.12-.75-.75-1.06-1.7-1.06-3.29v-.33c0-1.59.31-2.54 1.06-3.29.79-.79 1.85-1.12 3.63-1.12h8.72c.32 0 .58.26.58.58v1.83c0 .32-.26.58-.58.58h-9.27c-.54 0-.97.43-.97.97v1.25c0 .54.43.97.97.97h6.47c1.78 0 2.84.32 3.63 1.12.75.75 1.06 1.7 1.06 3.29v.4c0 1.59-.31 2.54-1.06 3.29-.78.81-1.84 1.13-3.62 1.13zM101.62 6.32c-1.22-1.22-3.05-1.84-5.44-1.84h-7.06c-.32 0-.58.26-.58.58v14.26c0 .32.26.58.58.58h7.06c2.39 0 4.21-.62 5.44-1.84 1.33-1.33 1.8-2.85 1.8-5.82v-.11c0-2.96-.47-4.48-1.8-5.81zm-1.41 5.92c0 1.98-.13 2.93-.9 3.7-.63.63-1.66.94-3.13.94h-4.43v-9.39h4.43c1.47 0 2.49.31 3.13.94.77.77.9 1.73.9 3.7v.11zM108.04 19.88h-2.04c-.32 0-.58-.26-.58-.58v-14.24c0-.32.26-.58.58-.58h2.04c.32 0 .58.26.58.58v14.24c0 .32-.26.58-.58.58zM87.19 19.05l-6.57-13.68c-.34-.7-1.06-1.15-1.84-1.15s-1.5.45-1.84 1.15l-6.57 13.67c-.19.39.1.83.52.83h2.17c.3 0 .58-.18.7-.45l1-2.16h8.03l.99 2.15c.13.28.4.45.71.45h2.17c.43.02.72-.43.53-.81zm-8.4-10.78l2.7 6.15h-5.41l2.71-6.15zM126.91 19.05l-6.57-13.67c-.34-.7-1.06-1.15-1.84-1.15s-1.5.45-1.84 1.15l-6.57 13.67c-.19.39.1.83.52.83h2.17c.3 0 .58-.18.7-.45l1-2.16h8.03l.99 2.15c.13.28.4.45.71.45h2.17c.43.01.72-.44.53-.82zm-8.4-10.78l2.7 6.15h-5.41l2.71-6.15z"/></svg>