<?xml version="1.0" encoding="utf-8"?>
<!-- Generator: Adobe Illustrator 24.1.1, SVG Export Plug-In . SVG Version: 6.00 Build 0)  -->
<svg version="1.1" id="Layer_1" xmlns="http://www.w3.org/2000/svg" xmlns:xlink="http://www.w3.org/1999/xlink" x="0px" y="0px"
	 viewBox="0 0 126.97 23.96" style="enable-background:new 0 0 126.97 23.96;" xml:space="preserve">
<style type="text/css">
	.st0{fill:#FFFFFF;}
</style>
<g>
	<path class="st0" d="M9.85,8.92c10.27-4.63,19.24-1.84,24.04,0.5c0.45,0.22,0.99-0.01,1.15-0.48l1.4-4.21
		c0.16-0.49-0.06-1.03-0.53-1.26c-5.92-2.89-19.96-7.5-35.47,3.41c-0.4,0.28-0.55,0.81-0.35,1.26l3.27,7.37
		c0.22,0.5,0.79,0.74,1.3,0.55c3.75-1.37,9.41-2.81,15.28-1.96c-3.97,0.67-7.17,2.07-9.62,3.58c-0.44,0.27-0.61,0.82-0.41,1.29
		c0,0,1.3,2.98,2.01,4.61c0.18,0.41,0.71,0.5,1.02,0.18c0.75-0.8,1.59-1.38,2.27-1.77c3.17-1.84,7.56-3.21,13.49-2.89
		c0.46,0.02,0.89-0.26,1.03-0.7l1.5-4.49c0.15-0.45-0.02-0.94-0.42-1.2c-4.4-2.78-11.17-5.09-20.98-3.78L9.85,8.92z"/>
	<g>
		<path class="st0" d="M66.71,19.88h-2.04c-0.32,0-0.58-0.26-0.58-0.58V7.47h-5.01c-0.32,0-0.58-0.26-0.58-0.58V5.06
			c0-0.32,0.26-0.58,0.58-0.58H72.3c0.32,0,0.58,0.26,0.58,0.58v1.83c0,0.32-0.26,0.58-0.58,0.58h-5.01V19.3
			C67.29,19.62,67.03,19.88,66.71,19.88z"/>
		<path class="st0" d="M53.52,19.88h-9.19c-0.32,0-0.58-0.26-0.58-0.58v-1.83c0-0.32,0.26-0.58,0.58-0.58h9.76
			c0.54,0,0.97-0.43,0.97-0.97v-1.33c0-0.54-0.43-0.97-0.97-0.97h-6.5c-1.78,0-2.84-0.32-3.63-1.12c-0.75-0.75-1.06-1.7-1.06-3.29
			V8.88c0-1.59,0.31-2.54,1.06-3.29c0.79-0.79,1.85-1.12,3.63-1.12h8.72c0.32,0,0.58,0.26,0.58,0.58v1.83
			c0,0.32-0.26,0.58-0.58,0.58h-9.27c-0.54,0-0.97,0.43-0.97,0.97l0,1.25c0,0.54,0.43,0.97,0.97,0.97h6.47
			c1.78,0,2.84,0.32,3.63,1.12c0.75,0.75,1.06,1.7,1.06,3.29v0.4c0,1.59-0.31,2.54-1.06,3.29C56.36,19.56,55.3,19.88,53.52,19.88z"
			/>
		<path class="st0" d="M101.62,6.32c-1.22-1.22-3.05-1.84-5.44-1.84h-7.06c-0.32,0-0.58,0.26-0.58,0.58v14.26
			c0,0.32,0.26,0.58,0.58,0.58h7.06c2.39,0,4.21-0.62,5.44-1.84c1.33-1.33,1.8-2.85,1.8-5.82v-0.11
			C103.42,9.17,102.95,7.65,101.62,6.32z M100.21,12.24c0,1.98-0.13,2.93-0.9,3.7c-0.63,0.63-1.66,0.94-3.13,0.94h-4.43V7.49h4.43
			c1.47,0,2.49,0.31,3.13,0.94c0.77,0.77,0.9,1.73,0.9,3.7V12.24z"/>
		<path class="st0" d="M108.04,19.88h-2.04c-0.32,0-0.58-0.26-0.58-0.58V5.06c0-0.32,0.26-0.58,0.58-0.58h2.04
			c0.32,0,0.58,0.26,0.58,0.58V19.3C108.62,19.62,108.36,19.88,108.04,19.88z"/>
		<path class="st0" d="M87.19,19.05L80.62,5.37c-0.34-0.7-1.06-1.15-1.84-1.15c-0.78,0-1.5,0.45-1.84,1.15l-6.57,13.67
			c-0.19,0.39,0.1,0.83,0.52,0.83h2.17c0.3,0,0.58-0.18,0.7-0.45l1-2.16h8.03l0.99,2.15c0.13,0.28,0.4,0.45,0.71,0.45h2.17
			C87.09,19.88,87.38,19.43,87.19,19.05z M78.79,8.27l2.7,6.15h-5.41L78.79,8.27z"/>
		<path class="st0" d="M126.91,19.05l-6.57-13.67c-0.34-0.7-1.06-1.15-1.84-1.15c-0.78,0-1.5,0.45-1.84,1.15l-6.57,13.67
			c-0.19,0.39,0.1,0.83,0.52,0.83h2.17c0.3,0,0.58-0.18,0.7-0.45l1-2.16h8.03l0.99,2.15c0.13,0.28,0.4,0.45,0.71,0.45h2.17
			C126.81,19.88,127.1,19.43,126.91,19.05z M118.51,8.27l2.7,6.15h-5.41L118.51,8.27z"/>
	</g>
</g>
</svg>
