<?xml version="1.0" encoding="utf-8"?>
<!-- Generator: Adobe Illustrator 24.1.1, SVG Export Plug-In . SVG Version: 6.00 Build 0)  -->
<svg version="1.1" id="_x32_" xmlns="http://www.w3.org/2000/svg" xmlns:xlink="http://www.w3.org/1999/xlink" x="0px" y="0px"
	 viewBox="0 0 329.9 68.67" style="enable-background:new 0 0 329.9 68.67;" xml:space="preserve">
<style type="text/css">
	.st0{fill:#FFFFFF;}
</style>
<g>
	<g>
		<g>
			<g>
				<polygon class="st0" points="322.67,54.36 321.1,54.36 321.1,53.82 324.84,53.82 324.84,54.36 323.28,54.36 323.28,58.57 
					322.67,58.57 				"/>
				<polygon class="st0" points="327.36,58.57 326.06,54.71 326.06,58.57 325.44,58.57 325.44,53.82 326.3,53.82 327.67,57.86 
					329.04,53.82 329.9,53.82 329.9,58.57 329.27,58.57 329.27,54.71 327.98,58.57 				"/>
			</g>
		</g>
		<g>
			<g>
				<g>
					<path class="st0" d="M250.65,16.26l-27.67,0c-8.03,0-11.95,4.95-11.95,11.38v19.57c0,3.98-1.89,6.85-5.88,6.85h-26.01
						c-0.16,0-0.29,0.13-0.29,0.3v3.93c0,0.17,0.13,0.3,0.3,0.3h29.01c8.03,0,11.96-4.94,11.96-11.37V27.64
						c0-3.99,1.89-6.86,5.88-6.86h24.67c0.16,0,0.29-0.13,0.29-0.3v-3.93C250.95,16.39,250.81,16.26,250.65,16.26"/>
					<path class="st0" d="M168.91,16.27l-50.06,0c-0.16,0-0.3,0.13-0.3,0.3v3.93c0,0.16,0.13,0.29,0.3,0.29h47.05
						c3.98,0,5.88,2.87,5.88,6.86c0,3.98-1.89,6.85-5.88,6.85h-37.22c-5.78,0-10.13,4.86-10.13,11.3l0,12.5c0,0.17,0.13,0.3,0.3,0.3
						h8.49c0.17,0,0.3-0.13,0.3-0.3v-12.5c0-3.99,2.3-6.77,5.6-6.77h35.68c8.03,0,11.96-4.93,11.96-11.37
						C180.86,21.21,176.94,16.27,168.91,16.27"/>
					<path class="st0" d="M316.34,49.54l-8.79-0.01h0.31c-0.17,0-0.31-0.14-0.31-0.3V20.76c0-4.38-3.03-5.81-7.28-3.18l-51.02,31.33
						c-2,1.23-2.68,2.62-2.19,3.65c0.42,0.89,1.52,1.5,3.73,1.5l47.38,0c0.13,0.01,0.24,0.1,0.27,0.22v4c0,0.17,0.13,0.31,0.3,0.31
						h8.52c0.16,0,0.3-0.14,0.3-0.31v-3.91c0-0.17,0.14-0.31,0.3-0.31h8.49c0.17,0,0.31-0.14,0.31-0.3v-3.93
						C316.65,49.68,316.51,49.54,316.34,49.54 M298.45,49.23c0,0.17-0.14,0.31-0.3,0.31h-39.72c-0.32,0-0.49-0.08-0.54-0.2
						c-0.05-0.19,0.06-0.32,0.29-0.48l39.53-24.34c0.27-0.17,0.73-0.14,0.73,0.4V49.23z"/>
				</g>
			</g>
		</g>
	</g>
	<g>
		<g>
			<g>
				<path class="st0" d="M33.28,0v64.07l14.5,4.6V14.93c0-2.51,1.12-4.2,2.93-3.61c2.37,0.66,2.83,2.97,2.83,5.49v21.46
					c9.04,4.37,16.15,0,16.15-11.52c0-11.82-4.16-17.06-16.44-21.28C48.42,3.85,39.45,1.14,33.28,0z"/>
				<path class="st0" d="M50.52,59.31L73.84,51c2.64-0.95,3.05-2.29,0.9-2.99c-2.15-0.7-6.04-0.5-8.68,0.45l-15.54,5.48v-8.71
					l0.89-0.3c0,0,4.49-1.59,10.8-2.29c6.31-0.68,14.05,0.09,20.11,2.4c6.84,2.16,7.61,5.35,5.87,7.54c-1.74,2.2-6,3.76-6,3.76
					L50.52,67.7V59.31z"/>
				<path class="st0" d="M6.68,58.42c-7.02-1.98-8.19-6.09-4.99-8.46c2.96-2.19,7.99-3.84,7.99-3.84l20.78-7.38v8.42l-14.96,5.36
					c-2.64,0.95-3.04,2.29-0.9,2.99c2.15,0.71,6.04,0.5,8.69-0.45l7.17-2.6v7.54c-0.46,0.08-0.96,0.16-1.43,0.23
					C21.86,61.39,14.21,60.91,6.68,58.42"/>
				<path class="st0" d="M80.77,65.16c0-0.75,0.29-1.46,0.82-1.99c0.53-0.54,1.24-0.83,2-0.83c0.75,0,1.46,0.29,1.99,0.83
					c0.54,0.53,0.82,1.24,0.82,1.99c0,1.56-1.27,2.82-2.82,2.82c-0.76,0-1.47-0.29-2-0.83C81.06,66.62,80.77,65.91,80.77,65.16z
					 M83.59,68.55c0.9,0,1.76-0.35,2.4-1c0.64-0.64,0.99-1.49,0.99-2.4c0-0.9-0.35-1.75-0.99-2.39c-0.64-0.65-1.5-1.01-2.4-1.01
					c-1.88,0-3.39,1.53-3.39,3.4c0,0.91,0.35,1.76,0.99,2.4C81.83,68.2,82.68,68.55,83.59,68.55"/>
				<path class="st0" d="M84.51,64.3c0,0.21-0.05,0.35-0.17,0.43c-0.12,0.08-0.29,0.12-0.5,0.12H82.8v-1.07h1.11
					c0.15,0,0.27,0.02,0.37,0.07C84.43,63.93,84.51,64.08,84.51,64.3z M85.26,66.74c-0.04-0.02-0.09-0.07-0.12-0.17
					c0-0.06-0.02-0.15-0.03-0.29L85.1,65.8c-0.01-0.23-0.05-0.39-0.13-0.5c-0.06-0.07-0.14-0.14-0.22-0.19
					c0.12-0.08,0.21-0.17,0.28-0.28c0.1-0.15,0.15-0.34,0.15-0.58c0-0.45-0.19-0.76-0.56-0.93c-0.19-0.09-0.43-0.13-0.72-0.13h-1.67
					h-0.08v0.07v3.62v0.09h0.08h0.49h0.08v-0.09v-1.47h1.03c0.18,0,0.33,0.03,0.41,0.06c0.13,0.07,0.2,0.2,0.21,0.41l0.03,0.6
					c0.01,0.14,0.01,0.24,0.02,0.29c0.01,0.06,0.03,0.1,0.05,0.14l0.03,0.05h0.05h0.6h0.08v-0.09v-0.08v-0.05L85.26,66.74"/>
			</g>
		</g>
	</g>
</g>
</svg>
