<svg xmlns="http://www.w3.org/2000/svg" viewBox="0 0 329.9 68.67" enable-background="new 0 0 329.9 68.67"><style type="text/css">.st0{fill:#FFFFFF;}</style><path class="st0" d="M322.67 54.36h-1.57v-.54h3.74v.54h-1.56v4.21h-.61zM327.36 58.57l-1.3-3.86v3.86h-.62v-4.75h.86l1.37 4.04 1.37-4.04h.86v4.75h-.63v-3.86l-1.29 3.86zM250.65 16.26h-27.67c-8.03 0-11.95 4.95-11.95 11.38v19.57c0 3.98-1.89 6.85-5.88 6.85h-26.01c-.16 0-.29.13-.29.3v3.93c0 .17.13.3.3.3h29.01c8.03 0 11.96-4.94 11.96-11.37v-19.58c0-3.99 1.89-6.86 5.88-6.86h24.67c.16 0 .29-.13.29-.3v-3.93c-.01-.16-.15-.29-.31-.29M168.91 16.27h-50.06c-.16 0-.3.13-.3.3v3.93c0 .16.13.29.3.29h47.05c3.98 0 5.88 2.87 5.88 6.86 0 3.98-1.89 6.85-5.88 6.85h-37.22c-5.78 0-10.13 4.86-10.13 11.3v12.5c0 .17.13.3.3.3h8.49c.17 0 .3-.13.3-.3v-12.5c0-3.99 2.3-6.77 5.6-6.77h35.68c8.03 0 11.96-4.93 11.96-11.37-.02-6.45-3.94-11.39-11.97-11.39"/><path class="st0" d="M316.34 49.54l-8.79-.01h.31c-.17 0-.31-.14-.31-.3v-28.47c0-4.38-3.03-5.81-7.28-3.18l-51.02 31.33c-2 1.23-2.68 2.62-2.19 3.65.42.89 1.52 1.5 3.73 1.5h47.38c.13.01.24.1.27.22v4c0 .17.13.31.3.31h8.52c.16 0 .3-.14.3-.31v-3.91c0-.17.14-.31.3-.31h8.49c.17 0 .31-.14.31-.3v-3.93c-.01-.15-.15-.29-.32-.29m-17.89-.31c0 .17-.14.31-.3.31h-39.72c-.32 0-.49-.08-.54-.2-.05-.19.06-.32.29-.48l39.53-24.34c.27-.17.73-.14.73.4v24.31zM33.28 0v64.07l14.5 4.6v-53.74c0-2.51 1.12-4.2 2.93-3.61 2.37.66 2.83 2.97 2.83 5.49v21.46c9.04 4.37 16.15 0 16.15-11.52 0-11.82-4.16-17.06-16.44-21.28-4.83-1.62-13.8-4.33-19.97-5.47zM50.52 59.31l23.32-8.31c2.64-.95 3.05-2.29.9-2.99-2.15-.7-6.04-.5-8.68.45l-15.54 5.48v-8.71l.89-.3s4.49-1.59 10.8-2.29c6.31-.68 14.05.09 20.11 2.4 6.84 2.16 7.61 5.35 5.87 7.54-1.74 2.2-6 3.76-6 3.76l-31.67 11.36v-8.39zM6.68 58.42c-7.02-1.98-8.19-6.09-4.99-8.46 2.96-2.19 7.99-3.84 7.99-3.84l20.78-7.38v8.42l-14.96 5.36c-2.64.95-3.04 2.29-.9 2.99 2.15.71 6.04.5 8.69-.45l7.17-2.6v7.54c-.46.08-.96.16-1.43.23-7.17 1.16-14.82.68-22.35-1.81M80.77 65.16c0-.75.29-1.46.82-1.99.53-.54 1.24-.83 2-.83.75 0 1.46.29 1.99.83.54.53.82 1.24.82 1.99 0 1.56-1.27 2.82-2.82 2.82-.76 0-1.47-.29-2-.83-.52-.53-.81-1.24-.81-1.99zm2.82 3.39c.9 0 1.76-.35 2.4-1 .64-.64.99-1.49.99-2.4 0-.9-.35-1.75-.99-2.39-.64-.65-1.5-1.01-2.4-1.01-1.88 0-3.39 1.53-3.39 3.4 0 .91.35 1.76.99 2.4.64.65 1.49 1 2.4 1M84.51 64.3c0 .21-.05.35-.17.43-.12.08-.29.12-.5.12h-1.04v-1.07h1.11c.15 0 .27.02.37.07.15.08.23.23.23.45zm.75 2.44c-.04-.02-.09-.07-.12-.17l-.03-.29-.01-.48c-.01-.23-.05-.39-.13-.5-.06-.07-.14-.14-.22-.19.12-.08.21-.17.28-.28.1-.15.15-.34.15-.58 0-.45-.19-.76-.56-.93-.19-.09-.43-.13-.72-.13h-1.75v3.78h.6499999999999999v-1.56h1.03c.18 0 .33.03.41.06.13.07.2.2.21.41l.03.6.02.29.05.14.03.05h.73v-.21999999999999997h-.05"/></svg>