<?xml version="1.0" encoding="utf-8"?>
<!-- Generator: Adobe Illustrator 24.1.1, SVG Export Plug-In . SVG Version: 6.00 Build 0)  -->
<svg version="1.1" id="Layer_1" xmlns="http://www.w3.org/2000/svg" xmlns:xlink="http://www.w3.org/1999/xlink" x="0px" y="0px"
	 viewBox="0 0 300 30" style="enable-background:new 0 0 300 30;" xml:space="preserve">
<style type="text/css">
	.st0{fill:#41403D;}
</style>
<g>
	<g>
		<g>
			<g>
				<path class="st0" d="M2.51,10.11h2.1c3.11,0,5.69,1.64,5.69,5.02c0,3.46-2.53,5.12-5.73,5.12H2.51V10.11z M3.78,19.1h0.44
					c2.58,0,4.81-0.97,4.81-3.91c0-2.96-2.23-3.91-4.81-3.91H3.78V19.1z"/>
				<path class="st0" d="M21.72,10.11h5.45v1.16h-4.18v2.84h4.06v1.16h-4.06v3.83h4.18v1.16h-5.45V10.11z"/>
				<path class="st0" d="M43.38,12.04c-0.38-0.63-0.86-0.95-1.63-0.95c-0.81,0-1.69,0.55-1.69,1.44c0,0.79,0.78,1.21,1.41,1.45
					l0.73,0.28c1.44,0.56,2.51,1.36,2.51,3.05c0,1.84-1.43,3.16-3.24,3.16c-1.64,0-2.92-1.21-3.13-2.84l1.28-0.27
					c-0.01,1.12,0.87,1.92,1.96,1.92c1.09,0,1.87-0.91,1.87-1.98c0-1.09-0.87-1.56-1.75-1.92l-0.7-0.3
					c-1.16-0.5-2.21-1.16-2.21-2.57c0-1.64,1.45-2.62,2.99-2.62c1.13,0,2.06,0.55,2.61,1.53L43.38,12.04z"/>
				<path class="st0" d="M58.98,20.25h-1.26v-8.98h-2.41v-1.16h6.08v1.16h-2.41V20.25z"/>
				<path class="st0" d="M73.76,20.25h-1.26V10.11h1.26V20.25z"/>
				<path class="st0" d="M85.69,9.63l7.61,7.98v-7.49h1.26v10.56l-7.61-7.98v7.56h-1.26V9.63z"/>
				<path class="st0" d="M105.47,10.11h1.45l2.49,4.33l2.49-4.33h1.45l-3.31,5.73v4.41h-1.26v-4.41L105.47,10.11z"/>
			</g>
			<g>
				<path class="st0" d="M131,15.11c1,0,1.82-0.8,1.85-1.8v-3.18l0,0c0-1.02-0.83-1.84-1.85-1.84c-1.02,0-1.85,0.83-1.85,1.84l0,0
					v3.18C129.18,14.31,130,15.11,131,15.11z M136.91,6.86c-1.15,0-1.94,0.79-2.91,1.27c-0.07,0.03-0.14,0.07-0.21,0.1v5.08
					c-0.03,1.51-1.26,2.73-2.78,2.73c-1.54,0-2.78-1.24-2.78-2.78c0-0.01,0-5.03,0-5.03c-0.07-0.03-0.15-0.06-0.21-0.1
					c-0.98-0.48-1.77-1.27-2.91-1.27c-1.95,0-3.36,2-2.7,3.84c0.29,0.81,0.88,1.25,1.57,1.69c0.83,0.53,1.58,1.19,2.19,1.96
					c0.91,1.14,1.52,2.5,1.81,3.93c0.14,0.68,0.22,1.58,0.28,2.21c0.13,1.45,1.14,2.64,2.74,2.64c1.61,0,2.61-1.19,2.74-2.64
					c0.06-0.63,0.14-1.53,0.28-2.21c0.29-1.43,0.9-2.79,1.81-3.93c0.62-0.77,1.37-1.43,2.2-1.96c0.69-0.44,1.28-0.88,1.57-1.69
					C140.27,8.86,138.86,6.86,136.91,6.86z"/>
			</g>
		</g>
		<g>
			<path class="st0" d="M155.33,18.6h-0.03c-0.72,1.01-1.78,1.5-3.08,1.5c-2.77,0-4.64-2.11-4.64-5.1c0-2.9,1.64-5.17,4.75-5.17
				c2.29,0,3.7,1.24,4.02,3.17h-1.28c-0.28-1.31-1.2-2.1-2.76-2.1c-2.37,0-3.45,1.78-3.45,4.1c0,2.41,1.41,4.03,3.41,4.03
				c2.03,0,2.98-1.38,2.98-3.04v-0.23h-2.97v-1.08h4.21v5.22h-0.8L155.33,18.6z"/>
			<path class="st0" d="M166.96,16.7v-6.68h1.24v6.55c0,1.68,0.95,2.4,2.58,2.4c1.56,0,2.5-0.72,2.5-2.4v-6.55h1.24v6.68
				c0,2.39-1.67,3.34-3.78,3.34C168.59,20.04,166.96,19.09,166.96,16.7z"/>
			<path class="st0" d="M187.54,10.03h1.39l3.64,9.87h-1.35l-1.05-3.01h-3.93l-1.06,3.01h-1.27L187.54,10.03z M186.6,15.88h3.23
				l-1.13-3.31c-0.19-0.55-0.44-1.39-0.44-1.39h-0.03c0,0-0.26,0.83-0.46,1.39L186.6,15.88z"/>
			<path class="st0" d="M202.44,10.03h4.61c1.74,0,2.91,1.09,2.91,2.7c0,1.2-0.52,2.06-1.71,2.44v0.04
				c1.01,0.36,1.32,1.05,1.42,2.51c0.11,1.59,0.28,1.99,0.46,2.11v0.05h-1.34c-0.21-0.18-0.25-0.55-0.36-2.21
				c-0.1-1.45-0.68-1.96-2-1.96h-2.75v4.17h-1.24V10.03z M203.68,14.72h2.93c1.38,0,2.07-0.69,2.07-1.81c0-1.2-0.55-1.81-2-1.81
				h-2.99V14.72z"/>
			<path class="st0" d="M220.41,10.03h3.59c2.97,0,4.37,2.01,4.37,4.97c0,2.95-1.5,4.9-4.47,4.9h-3.49V10.03z M223.86,18.8
				c2.32,0,3.24-1.49,3.24-3.81c0-2.32-0.83-3.89-3.15-3.89h-2.3v7.7H223.86z"/>
			<path class="st0" d="M238.75,10.03h1.24v9.87h-1.24V10.03z"/>
			<path class="st0" d="M253.48,10.03h1.39l3.64,9.87h-1.35l-1.05-3.01h-3.93l-1.06,3.01h-1.27L253.48,10.03z M252.54,15.88h3.23
				l-1.13-3.31c-0.19-0.55-0.44-1.39-0.44-1.39h-0.03c0,0-0.26,0.83-0.46,1.39L252.54,15.88z"/>
			<path class="st0" d="M268.38,10.03h1.31l4.5,6.86c0.33,0.51,0.72,1.27,0.72,1.27h0.03v-8.13h1.16v9.87h-1.27l-4.53-6.87
				c-0.32-0.48-0.73-1.23-0.73-1.23h-0.03v8.1h-1.16V10.03z"/>
			<path class="st0" d="M286.23,16.55h1.21c0.17,1.67,1.19,2.54,3.05,2.54c1.37,0,2.35-0.62,2.35-1.85c0-1.35-1.19-1.67-2.95-2.06
				c-1.74-0.39-3.23-0.88-3.23-2.75c0-1.63,1.35-2.61,3.35-2.61c2.47,0,3.49,1.26,3.74,3.08h-1.17c-0.18-1.41-1.09-2.11-2.54-2.11
				c-1.34,0-2.22,0.57-2.22,1.59c0,1.12,1.1,1.45,2.58,1.74c1.92,0.39,3.67,0.86,3.67,3.08c0,1.85-1.5,2.88-3.63,2.88
				C287.67,20.09,286.34,18.54,286.23,16.55z"/>
		</g>
		<g>
			<path class="st0" d="M295.65,9.82h0.76v0.15h-0.29v0.77h-0.18V9.97h-0.29V9.82z M296.56,9.82h0.26l0.2,0.7h0l0.2-0.7h0.26v0.92
				h-0.17v-0.71h-0.01c0,0-0.04,0.15-0.07,0.26l-0.13,0.44h-0.17l-0.13-0.44c-0.03-0.11-0.07-0.26-0.07-0.26h-0.01v0.71h-0.16V9.82z
				"/>
		</g>
	</g>
</g>
</svg>
