<?xml version="1.0" encoding="utf-8"?>
<!-- Generator: Adobe Illustrator 23.0.0, SVG Export Plug-In . SVG Version: 6.00 Build 0)  -->
<svg version="1.1" id="Layer_1" xmlns="http://www.w3.org/2000/svg" xmlns:xlink="http://www.w3.org/1999/xlink" x="0px" y="0px"
	 viewBox="0 0 447.49 532.51" style="enable-background:new 0 0 447.49 532.51;" xml:space="preserve">
<style type="text/css">
	.st0{fill:#FFFFFF;}
</style>
<g>
	<g>
		<path class="st0" d="M24.58,246.8l-0.03-0.34c-0.08-1.05-0.14-2.1-0.2-3.15l-0.08-1.47l-23.62,1.65l-0.34,0.03l0.35,4.96
			l23.58-1.65L24.58,246.8z"/>
		<path class="st0" d="M60.75,346.62c-0.82-1.16-1.64-2.35-2.44-3.53l-0.19-0.29L38.4,356.4l2.83,4.1l19.72-13.59L60.75,346.62z"/>
		<path class="st0" d="M30.47,281.13c-0.31-1.17-0.62-2.34-0.9-3.51l-0.08-0.34L6.58,283.1l-0.33,0.09l1.23,4.82l23.26-5.91
			L30.47,281.13z"/>
		<path class="st0" d="M84.21,374.24l-1.16-1.14c-0.72-0.7-1.43-1.4-2.13-2.12l-0.24-0.25l-16.69,16.61l-0.24,0.24l3.51,3.54
			l16.72-16.63L84.21,374.24z"/>
		<path class="st0" d="M111.85,397l-0.28-0.19c-0.8-0.55-1.59-1.12-2.37-1.69l-1.4-1.01L94.09,413.7l4.08,2.86l13.48-19.27
			L111.85,397z"/>
		<path class="st0" d="M143.26,414.56l-0.31-0.14c-1.31-0.59-2.6-1.2-3.89-1.81l-0.31-0.15l-9.87,21.32l-0.14,0.31l4.51,2.09
			l9.87-21.31L143.26,414.56z"/>
		<path class="st0" d="M42.89,315.83l-0.14-0.31c-0.42-0.91-0.83-1.84-1.23-2.77l-0.65-1.48l-21.55,9.75l-0.31,0.14l2.06,4.54
			l21.51-9.74L42.89,315.83z"/>
	</g>
	<g>
		<path class="st0" d="M423.22,246.8l0.03-0.34c0.08-1.05,0.14-2.1,0.2-3.15l0.08-1.47l23.62,1.65l0.34,0.03l-0.35,4.96l-23.58-1.65
			L423.22,246.8z"/>
		<path class="st0" d="M387.05,346.62c0.82-1.16,1.64-2.35,2.44-3.53l0.19-0.29l19.72,13.59l-2.83,4.1l-19.72-13.59L387.05,346.62z"
			/>
		<path class="st0" d="M417.33,281.13c0.31-1.17,0.62-2.34,0.9-3.51l0.08-0.34l22.91,5.83l0.33,0.09l-1.23,4.82l-23.26-5.91
			L417.33,281.13z"/>
		<path class="st0" d="M363.59,374.24l1.16-1.14c0.72-0.7,1.43-1.4,2.13-2.12l0.24-0.25l16.69,16.61l0.24,0.24l-3.51,3.54
			l-16.72-16.63L363.59,374.24z"/>
		<path class="st0" d="M335.95,397l0.28-0.19c0.8-0.55,1.59-1.12,2.37-1.69l1.4-1.01l13.71,19.59l-4.08,2.86l-13.48-19.27
			L335.95,397z"/>
		<path class="st0" d="M304.54,414.56l0.31-0.14c1.31-0.59,2.6-1.2,3.89-1.81l0.31-0.15l9.87,21.32l0.14,0.31l-4.51,2.09
			l-9.87-21.31L304.54,414.56z"/>
		<path class="st0" d="M404.9,315.83l0.14-0.31c0.42-0.91,0.83-1.84,1.23-2.77l0.65-1.48l21.55,9.75l0.31,0.14l-2.06,4.54
			l-21.51-9.74L404.9,315.83z"/>
	</g>
	<path class="st0" d="M75.02,57.21H46.84v30.23C20.85,120.97,3.97,161.9,0,206.49h24.26c9.52-95.48,85.24-171.75,180.47-182.16V0
		C155.13,4.84,110.18,25.67,75.02,57.21z"/>
	<path class="st0" d="M390.35,76.12V47.8h-29.91C327.14,21.54,286.37,4.34,241.87,0v24.34c95.23,10.41,170.94,86.67,180.47,182.16
		h24.26C442.17,156.73,421.65,111.56,390.35,76.12z"/>
	<g>
		<g>
			<g>
				<g>
					<g>
						<g>
							<path class="st0" d="M225.01,481.2c6.32,0,11.48-5.13,11.64-11.51v-20.34l0,0c-0.01-6.51-5.22-11.79-11.64-11.79
								c-6.43,0-11.63,5.28-11.65,11.79l0,0v20.34C213.54,476.06,218.68,481.2,225.01,481.2z M262.19,428.43
								c-7.22,0-12.17,5.07-18.34,8.12c-0.42,0.22-0.88,0.42-1.34,0.62v32.49c-0.17,9.67-7.94,17.46-17.49,17.46
								c-9.67,0-17.51-7.96-17.51-17.78c0-0.03,0-32.17,0-32.17c-0.45-0.2-0.91-0.41-1.34-0.62c-6.16-3.05-11.11-8.12-18.34-8.12
								c-12.27,0-21.15,12.77-16.96,24.51c1.83,5.19,5.54,8.02,9.87,10.84c5.22,3.4,9.93,7.61,13.82,12.53
								c5.76,7.3,9.6,16.01,11.42,25.15c0.87,4.34,1.42,10.11,1.77,14.14c0.83,9.29,7.16,16.9,17.27,16.9
								c10.11,0,16.43-7.62,17.26-16.9c0.37-4.03,0.9-9.8,1.77-14.14c1.84-9.14,5.67-17.86,11.42-25.15
								c3.89-4.91,8.6-9.12,13.82-12.53c4.33-2.83,8.03-5.66,9.87-10.84C283.34,441.19,274.47,428.43,262.19,428.43z"/>
						</g>
					</g>
				</g>
			</g>
		</g>
	</g>
	<g>
		<path class="st0" d="M293.25,231.15c-0.02-41.05-33.27-74.32-74.34-74.32c-41.04,0.01-74.31,33.28-74.31,74.32
			c0,41.04,33.29,74.31,74.31,74.33C259.97,305.48,293.24,272.21,293.25,231.15z M218.91,403.03
			c94.95,0.01,171.88-76.94,171.88-171.87c0-94.93-76.93-171.9-171.89-171.89 M68.93,231.15c0-82.71,67.28-149.99,149.98-149.99
			c82.71,0,149.99,67.28,150,150c0,82.7-67.28,149.98-150,149.98C136.2,381.14,68.92,313.86,68.93,231.15z"/>
	</g>
</g>
</svg>
