<svg xmlns="http://www.w3.org/2000/svg" viewBox="0 0 447.49 532.51" enable-background="new 0 0 447.49 532.51"><style type="text/css">.st0{fill:#FFFFFF;}</style><path class="st0" d="M24.58 246.8l-.03-.34c-.08-1.05-.14-2.1-.2-3.15l-.08-1.47-23.62 1.65-.34.03.35 4.96 23.58-1.65.34-.03zM60.75 346.62c-.82-1.16-1.64-2.35-2.44-3.53l-.19-.29-19.72 13.6 2.83 4.1 19.72-13.59-.2-.29zM30.47 281.13c-.31-1.17-.62-2.34-.9-3.51l-.08-.34-22.91 5.82-.33.09 1.23 4.82 23.26-5.91-.27-.97zM84.21 374.24l-1.16-1.14c-.72-.7-1.43-1.4-2.13-2.12l-.24-.25-16.69 16.61-.24.24 3.51 3.54 16.72-16.63.23-.25zM111.85 397l-.28-.19c-.8-.55-1.59-1.12-2.37-1.69l-1.4-1.01-13.71 19.59 4.08 2.86 13.48-19.27.2-.29zM143.26 414.56l-.31-.14c-1.31-.59-2.6-1.2-3.89-1.81l-.31-.15-9.87 21.32-.14.31 4.51 2.09 9.87-21.31.14-.31zM42.89 315.83l-.14-.31c-.42-.91-.83-1.84-1.23-2.77l-.65-1.48-21.55 9.75-.31.14 2.06 4.54 21.51-9.74.31-.13zM423.22 246.8l.03-.34c.08-1.05.14-2.1.2-3.15l.08-1.47 23.62 1.65.34.03-.35 4.96-23.58-1.65-.34-.03zM387.05 346.62c.82-1.16 1.64-2.35 2.44-3.53l.19-.29 19.72 13.59-2.83 4.1-19.72-13.59.2-.28zM417.33 281.13c.31-1.17.62-2.34.9-3.51l.08-.34 22.91 5.83.33.09-1.23 4.82-23.26-5.91.27-.98zM363.59 374.24l1.16-1.14c.72-.7 1.43-1.4 2.13-2.12l.24-.25 16.69 16.61.24.24-3.51 3.54-16.72-16.63-.23-.25zM335.95 397l.28-.19c.8-.55 1.59-1.12 2.37-1.69l1.4-1.01 13.71 19.59-4.08 2.86-13.48-19.27-.2-.29zM304.54 414.56l.31-.14c1.31-.59 2.6-1.2 3.89-1.81l.31-.15 9.87 21.32.14.31-4.51 2.09-9.87-21.31-.14-.31zM404.9 315.83l.14-.31c.42-.91.83-1.84 1.23-2.77l.65-1.48 21.55 9.75.31.14-2.06 4.54-21.51-9.74-.31-.13zM75.02 57.21h-28.18v30.23c-25.99 33.53-42.87 74.46-46.84 119.05h24.26c9.52-95.48 85.24-171.75 180.47-182.16v-24.33c-49.6 4.84-94.55 25.67-129.71 57.21zM390.35 76.12v-28.32h-29.91c-33.3-26.26-74.07-43.46-118.57-47.8v24.34c95.23 10.41 170.94 86.67 180.47 182.16h24.26c-4.43-49.77-24.95-94.94-56.25-130.38zM225.01 481.2c6.32 0 11.48-5.13 11.64-11.51v-20.34c-.01-6.51-5.22-11.79-11.64-11.79-6.43 0-11.63 5.28-11.65 11.79v20.34c.18 6.37 5.32 11.51 11.65 11.51zm37.18-52.77c-7.22 0-12.17 5.07-18.34 8.12-.42.22-.88.42-1.34.62v32.49c-.17 9.67-7.94 17.46-17.49 17.46-9.67 0-17.51-7.96-17.51-17.78v-32.17c-.45-.2-.91-.41-1.34-.62-6.16-3.05-11.11-8.12-18.34-8.12-12.27 0-21.15 12.77-16.96 24.51 1.83 5.19 5.54 8.02 9.87 10.84 5.22 3.4 9.93 7.61 13.82 12.53 5.76 7.3 9.6 16.01 11.42 25.15.87 4.34 1.42 10.11 1.77 14.14.83 9.29 7.16 16.9 17.27 16.9s16.43-7.62 17.26-16.9c.37-4.03.9-9.8 1.77-14.14 1.84-9.14 5.67-17.86 11.42-25.15 3.89-4.91 8.6-9.12 13.82-12.53 4.33-2.83 8.03-5.66 9.87-10.84 4.18-11.75-4.69-24.51-16.97-24.51zM293.25 231.15c-.02-41.05-33.27-74.32-74.34-74.32-41.04.01-74.31 33.28-74.31 74.32 0 41.04 33.29 74.31 74.31 74.33 41.06 0 74.33-33.27 74.34-74.33zm-74.34 171.88c94.95.01 171.88-76.94 171.88-171.87s-76.93-171.9-171.89-171.89m-149.97 171.88c0-82.71 67.28-149.99 149.98-149.99 82.71 0 149.99 67.28 150 150 0 82.7-67.28 149.98-150 149.98-82.71 0-149.99-67.28-149.98-149.99z"/></svg>