<?xml version="1.0" encoding="utf-8"?>
<!-- Generator: Adobe Illustrator 24.1.1, SVG Export Plug-In . SVG Version: 6.00 Build 0)  -->
<svg version="1.1" id="Layer_1" xmlns="http://www.w3.org/2000/svg" xmlns:xlink="http://www.w3.org/1999/xlink" x="0px" y="0px"
	 viewBox="0 0 152.41 81.31" style="enable-background:new 0 0 152.41 81.31;" xml:space="preserve">
<style type="text/css">
	.st0{fill:#FFFFFF;}
</style>
<g>
	<path class="st0" d="M114.74,49.19c9.91-7.84,20.73-13.36,20.73-23.5c0-7.37-3.92-12.32-10.94-12.32c-7.95,0-12.67,5.76-12.9,16.01
		H96.89C96.89,11.4,106.1,0,124.88,0c17.17,0,26.84,11.63,26.84,25.22c0,14.86-10.14,21.89-19.81,28.34
		c-6.11,3.92-13.25,8.99-15.9,14.05h36.4v12.9H95.74C96.31,65.43,105.76,56.21,114.74,49.19z"/>
	<g>
		<path class="st0" d="M43.43,41.56c4.98,0,9.02-3.97,9.15-8.92h0.01V16.88l0,0c-0.01-5.04-4.11-9.14-9.16-9.14
			c-5.06,0-9.15,4.09-9.16,9.14h0v15.76h0.01C34.41,37.58,38.45,41.56,43.43,41.56z M72.68,0.67C67,0.67,63.1,4.6,58.26,6.96
			c-0.33,0.17-0.69,0.33-1.05,0.48v25.17h-0.01c-0.13,7.49-6.24,13.53-13.76,13.53c-7.61,0-13.77-6.17-13.77-13.77
			c0-0.03,0-0.05,0-0.08h0V7.44c-0.36-0.16-0.71-0.32-1.05-0.48c-4.85-2.36-8.74-6.29-14.43-6.29c-9.66,0-16.64,9.89-13.35,18.99
			c1.44,4.02,4.36,6.21,7.77,8.4c4.11,2.64,7.81,5.9,10.88,9.71c4.53,5.65,7.55,12.4,8.98,19.48c0.69,3.37,1.12,7.83,1.4,10.96
			c0.65,7.19,5.63,13.1,13.59,13.1c7.95,0,12.93-5.9,13.58-13.1c0.29-3.12,0.71-7.59,1.4-10.96c1.44-7.08,4.46-13.83,8.99-19.48
			c3.06-3.81,6.77-7.07,10.88-9.71c3.41-2.19,6.32-4.38,7.77-8.4C89.32,10.57,82.35,0.67,72.68,0.67z"/>
		<g>
			<path class="st0" d="M21.05,75.83c0-1.61,1.22-2.91,2.77-2.91c1.55,0,2.77,1.29,2.77,2.91c0,1.61-1.22,2.9-2.77,2.9
				C22.27,78.73,21.05,77.44,21.05,75.83z M26.17,75.83c0-1.37-1.09-2.46-2.35-2.46c-1.26,0-2.35,1.09-2.35,2.46
				c0,1.37,1.08,2.46,2.35,2.46C25.08,78.29,26.17,77.2,26.17,75.83z M25.13,77.4h-0.51l-0.91-1.47h-0.51v1.47h-0.42v-3.18h1.32
				c0.54,0,1.07,0.15,1.07,0.84c0,0.62-0.42,0.86-0.96,0.87L25.13,77.4z M23.72,75.48c0.37,0,1.03,0.08,1.03-0.43
				c0-0.33-0.41-0.39-0.73-0.39h-0.81v0.82H23.72z"/>
		</g>
	</g>
</g>
</svg>
