<svg xmlns="http://www.w3.org/2000/svg" viewBox="0 0 152.41 81.31" enable-background="new 0 0 152.41 81.31"><style type="text/css">.st0{fill:#FFFFFF;}</style><path class="st0" d="M114.74 49.19c9.91-7.84 20.73-13.36 20.73-23.5 0-7.37-3.92-12.32-10.94-12.32-7.95 0-12.67 5.76-12.9 16.01h-14.74c0-17.98 9.21-29.38 27.99-29.38 17.17 0 26.84 11.63 26.84 25.22 0 14.86-10.14 21.89-19.81 28.34-6.11 3.92-13.25 8.99-15.9 14.05h36.4v12.9h-56.67c.57-15.08 10.02-24.3 19-31.32zM43.43 41.56c4.98 0 9.02-3.97 9.15-8.92h.01v-15.76c-.01-5.04-4.11-9.14-9.16-9.14-5.06 0-9.15 4.09-9.16 9.14v15.76h.01c.13 4.94 4.17 8.92 9.15 8.92zm29.25-40.89c-5.68 0-9.58 3.93-14.42 6.29-.33.17-.69.33-1.05.48v25.17h-.01c-.13 7.49-6.24 13.53-13.76 13.53-7.61 0-13.77-6.17-13.77-13.77v-24.93c-.36-.16-.71-.32-1.05-.48-4.85-2.36-8.74-6.29-14.43-6.29-9.66 0-16.64 9.89-13.35 18.99 1.44 4.02 4.36 6.21 7.77 8.4 4.11 2.64 7.81 5.9 10.88 9.71 4.53 5.65 7.55 12.4 8.98 19.48.69 3.37 1.12 7.83 1.4 10.96.65 7.19 5.63 13.1 13.59 13.1 7.95 0 12.93-5.9 13.58-13.1.29-3.12.71-7.59 1.4-10.96 1.44-7.08 4.46-13.83 8.99-19.48 3.06-3.81 6.77-7.07 10.88-9.71 3.41-2.19 6.32-4.38 7.77-8.4 3.24-9.09-3.73-18.99-13.4-18.99zM21.05 75.83c0-1.61 1.22-2.91 2.77-2.91s2.77 1.29 2.77 2.91c0 1.61-1.22 2.9-2.77 2.9s-2.77-1.29-2.77-2.9zm5.12 0c0-1.37-1.09-2.46-2.35-2.46s-2.35 1.09-2.35 2.46c0 1.37 1.08 2.46 2.35 2.46 1.26 0 2.35-1.09 2.35-2.46zm-1.04 1.57h-.51l-.91-1.47h-.51v1.47h-.42v-3.18h1.32c.54 0 1.07.15 1.07.84 0 .62-.42.86-.96.87l.92 1.47zm-1.41-1.92c.37 0 1.03.08 1.03-.43 0-.33-.41-.39-.73-.39h-.81v.82h.51z"/></svg>