<?xml version="1.0" encoding="utf-8"?>
<!-- Generator: Adobe Illustrator 23.0.0, SVG Export Plug-In . SVG Version: 6.00 Build 0)  -->
<svg version="1.1" id="Layer_1" xmlns="http://www.w3.org/2000/svg" xmlns:xlink="http://www.w3.org/1999/xlink" x="0px" y="0px"
	 viewBox="0 0 294.02 204.11" style="enable-background:new 0 0 294.02 204.11;" xml:space="preserve">
<style type="text/css">
	.st0{fill-rule:evenodd;clip-rule:evenodd;fill:#FFFFFF;}
</style>
<path class="st0" d="M293.74,99.64c-7.93,2.09-15.77,4.17-23.61,6.23c-14.53,3.83-29.08,7.65-43.61,11.46
	c-3.94,1.03-7.9,1.88-12.03,1.67c-0.94-0.05-2.06,0.04-2.83,0.52c-4.53,2.84-8.99,5.81-13.91,9.03c4.33,0.77,5.93,3.95,7.73,6.64
	c0.93,1.4,0.78,3.57-0.66,5.2c-2.26,2.55-4.47,5.14-6.6,7.8c-1,1.26-2.17,1.66-3.72,1.6c-2.17-0.08-4.34-0.02-6.27-0.02
	c-1.64,2.44-0.01,5.36-2.49,7.05c-2.03,1.37-3.91,2.87-6.68,2.03c-0.4,1.08-0.76,1.98-1.06,2.9c-1.79,5.54-3.58,11.08-5.33,16.62
	c-0.64,2.05-1.73,3.75-3.42,5.11c-1.7,1.38-3.32,2.9-5,4.3c-3.6,2.99-6.37,6.6-8.41,10.84c-2.65,5.47-10.05,7.23-14.88,3.55
	c-1.18-0.89-2.22-2.19-2.84-3.53c-2.03-4.39-5.05-7.92-8.64-11.08c-8.6-7.55-6.47-4.11-10.19-15.45c-1.16-3.55-2.23-7.12-3.37-10.67
	c-0.26-0.82-0.66-1.59-1.08-2.62c-2.72,0.92-4.6-0.58-6.6-1.99c-2.33-1.64-1.08-4.32-2.19-6.53c-2.02-0.84-4.35-0.45-6.59-0.47
	c-1.7-0.02-2.89-0.53-3.95-1.86c-1.97-2.5-4.11-4.87-6.13-7.32c-1.83-2.23-1.82-4.5-0.03-6.84c0.53-0.7,1.12-1.36,1.69-2.03
	c1.24-1.47,2.34-3.13,4.76-3.5c-4.57-2.99-9.13-6.02-13.75-8.93c-0.67-0.42-1.69-0.29-2.55-0.39c-3.59-0.43-7.27-0.43-10.74-1.32
	c-22.31-5.75-44.58-11.69-66.87-17.57c-0.51-0.14-1.02-0.3-1.6-0.47c-0.57-2.1-0.34-3.89,0.83-5.7
	c6.99-10.78,13.48-21.9,20.97-32.32c7.62-10.61,16.17-20.65,26.58-28.68c7.18-5.54,14.74-10.72,22.97-14.75
	c0.19-0.09,0.39-0.19,0.59-0.29c15.4-8.18,32.01-12.49,49.05-15.53c8.37-1.48,16.8-2.3,25.22-2.35c9.32-0.05,18.6,1.04,27.83,2.61
	c10.77,1.84,21.21,4.77,31.53,8.14c4.86,1.59,9.49,4.01,14.11,6.3c13.89,6.87,26.61,15.49,37.18,26.85
	c8.3,8.92,15.98,18.41,22.42,28.82c4.4,7.09,8.81,14.18,13.28,21.22C293.92,95.63,294.34,97.32,293.74,99.64z M146.98,156
	c7.19,0,13.02-5.77,13.07-12.95c0.05-7.16-5.71-13.05-12.89-13.16c-7.29-0.11-13.25,5.81-13.22,13.14
	C133.97,150.24,139.77,156,146.98,156z"/>
</svg>
