<svg xmlns="http://www.w3.org/2000/svg" viewBox="0 0 294.02 204.11" enable-background="new 0 0 294.02 204.11"><style type="text/css">.st0{fill-rule:evenodd;clip-rule:evenodd;fill:#FFFFFF;}</style><path class="st0" d="M293.74 99.64c-7.93 2.09-15.77 4.17-23.61 6.23-14.53 3.83-29.08 7.65-43.61 11.46-3.94 1.03-7.9 1.88-12.03 1.67-.94-.05-2.06.04-2.83.52-4.53 2.84-8.99 5.81-13.91 9.03 4.33.77 5.93 3.95 7.73 6.64.93 1.4.78 3.57-.66 5.2-2.26 2.55-4.47 5.14-6.6 7.8-1 1.26-2.17 1.66-3.72 1.6-2.17-.08-4.34-.02-6.27-.02-1.64 2.44-.01 5.36-2.49 7.05-2.03 1.37-3.91 2.87-6.68 2.03-.4 1.08-.76 1.98-1.06 2.9-1.79 5.54-3.58 11.08-5.33 16.62-.64 2.05-1.73 3.75-3.42 5.11-1.7 1.38-3.32 2.9-5 4.3-3.6 2.99-6.37 6.6-8.41 10.84-2.65 5.47-10.05 7.23-14.88 3.55-1.18-.89-2.22-2.19-2.84-3.53-2.03-4.39-5.05-7.92-8.64-11.08-8.6-7.55-6.47-4.11-10.19-15.45-1.16-3.55-2.23-7.12-3.37-10.67-.26-.82-.66-1.59-1.08-2.62-2.72.92-4.6-.58-6.6-1.99-2.33-1.64-1.08-4.32-2.19-6.53-2.02-.84-4.35-.45-6.59-.47-1.7-.02-2.89-.53-3.95-1.86-1.97-2.5-4.11-4.87-6.13-7.32-1.83-2.23-1.82-4.5-.03-6.84.53-.7 1.12-1.36 1.69-2.03 1.24-1.47 2.34-3.13 4.76-3.5-4.57-2.99-9.13-6.02-13.75-8.93-.67-.42-1.69-.29-2.55-.39-3.59-.43-7.27-.43-10.74-1.32-22.31-5.75-44.58-11.69-66.87-17.57-.51-.14-1.02-.3-1.6-.47-.57-2.1-.34-3.89.83-5.7 6.99-10.78 13.48-21.9 20.97-32.32 7.62-10.61 16.17-20.65 26.58-28.68 7.18-5.54 14.74-10.72 22.97-14.75l.59-.29c15.4-8.18 32.01-12.49 49.05-15.53 8.37-1.48 16.8-2.3 25.22-2.35 9.32-.05 18.6 1.04 27.83 2.61 10.77 1.84 21.21 4.77 31.53 8.14 4.86 1.59 9.49 4.01 14.11 6.3 13.89 6.87 26.61 15.49 37.18 26.85 8.3 8.92 15.98 18.41 22.42 28.82 4.4 7.09 8.81 14.18 13.28 21.22 1.07 1.71 1.49 3.4.89 5.72zm-146.76 56.36c7.19 0 13.02-5.77 13.07-12.95.05-7.16-5.71-13.05-12.89-13.16-7.29-.11-13.25 5.81-13.22 13.14.03 7.21 5.83 12.97 13.04 12.97z"/></svg>