<svg id="Layer_1" data-name="Layer 1" xmlns="http://www.w3.org/2000/svg" xmlns:xlink="http://www.w3.org/1999/xlink" viewBox="0 0 223.42 290.9"><defs><style>.cls-1{fill:none;}.cls-2{clip-path:url(#clip-path);}.cls-3{opacity:0.2;}.cls-4{fill:#dfbc46;}.cls-5{fill:#373737;}</style><clipPath id="clip-path"><path class="cls-1" d="M444.89,242.41s-66.61,37.49-77.42,37.49-77.42-37.49-77.42-37.49a41.28,41.28,0,0,1-23.3-37.16V11H468.18V205.25A41.29,41.29,0,0,1,444.89,242.41Z"/></clipPath></defs><title>class_warlock</title><g class="cls-2"><g class="cls-3"><polygon class="cls-4" points="200.34 195.62 256.49 195.62 332.74 79.03 304.67 36.11 200.34 195.62"/></g></g><path class="cls-5" d="M189.13,242.41s-66.61,37.49-77.42,37.49-77.42-37.49-77.42-37.49A41.29,41.29,0,0,1,11,205.25V11H212.42V205.25A41.28,41.28,0,0,1,189.13,242.41Z"/><path class="cls-4" d="M111.71,281.9c-11,0-71.23-33.72-78.35-37.72A43.53,43.53,0,0,1,9,205.25V9H214.42V205.25a43.53,43.53,0,0,1-24.36,38.93C183,248.18,122.7,281.9,111.71,281.9ZM13,13V205.25a39.52,39.52,0,0,0,22.16,35.36l.11,0c26.59,15,68.9,37.24,76.44,37.24s49.85-22.27,76.44-37.24l.11,0a39.52,39.52,0,0,0,22.16-35.36V13Z"/><polygon class="cls-4" points="87.61 162.12 110.05 127.8 96 106.33 59.51 162.12 87.61 162.12"/><polygon class="cls-4" points="28.09 162.12 56.18 162.12 94.34 103.79 80.29 82.31 28.09 162.12"/><polygon class="cls-4" points="111.72 125.26 125.76 103.79 111.72 82.31 97.67 103.79 111.72 125.26"/><polygon class="cls-4" points="143.13 82.31 129.08 103.79 167.24 162.12 195.34 162.12 143.13 82.31"/><polygon class="cls-4" points="163.91 162.12 127.42 106.33 113.37 127.8 135.82 162.12 163.91 162.12"/><polygon class="cls-4" points="132.49 162.12 111.72 130.35 90.93 162.12 111.72 162.12 132.49 162.12"/></svg>