<svg id="Layer_1" data-name="Layer 1" xmlns="http://www.w3.org/2000/svg" xmlns:xlink="http://www.w3.org/1999/xlink" viewBox="0 0 223.42 290.9"><defs><style>.cls-1{fill:none;}.cls-2{fill:#979b9b;}.cls-3{fill:#305c83;}.cls-4{clip-path:url(#clip-path);}.cls-5{opacity:0.4;}.cls-6{clip-path:url(#clip-path-2);}.cls-7{opacity:0.2;}.cls-8{fill:#dfbc46;}</style><clipPath id="clip-path"><path class="cls-1" d="M189.13,242.41s-66.61,37.49-77.42,37.49-77.42-37.49-77.42-37.49A41.29,41.29,0,0,1,11,205.25V11H212.42V205.25A41.28,41.28,0,0,1,189.13,242.41Z"/></clipPath><clipPath id="clip-path-2"><path class="cls-1" d="M-62,242.41S-128.6,279.9-139.4,279.9s-77.43-37.49-77.43-37.49a41.29,41.29,0,0,1-23.29-37.16V11H-38.69V205.25A41.29,41.29,0,0,1-62,242.41Z"/></clipPath></defs><title>class_hunter_hover</title><path class="cls-2" d="M189.13,242.41s-66.61,37.49-77.42,37.49-77.42-37.49-77.42-37.49A41.29,41.29,0,0,1,11,205.25V11H212.42V205.25A41.28,41.28,0,0,1,189.13,242.41Z"/><path class="cls-3" d="M111.71,281.9c-11,0-71.23-33.72-78.35-37.72A43.53,43.53,0,0,1,9,205.25V9H214.42V205.25a43.54,43.54,0,0,1-24.36,38.93C183,248.18,122.7,281.9,111.71,281.9ZM13,13V205.25a39.52,39.52,0,0,0,22.16,35.36l.11,0c26.59,15,68.9,37.24,76.44,37.24s49.85-22.27,76.44-37.24l.11,0a39.52,39.52,0,0,0,22.16-35.36V13Z"/><polygon class="cls-3" points="111.7 96.16 82.4 96.16 111.7 52.63 82.39 52.63 50.63 99.81 79.93 99.81 50.63 143.35 79.94 143.35 50.63 186.88 79.95 186.88 111.71 139.7 82.4 139.7 111.7 96.16"/><polygon class="cls-3" points="143.49 99.81 172.79 99.81 141.03 52.63 111.72 52.63 141.02 96.16 111.72 96.16 141.02 139.7 111.71 139.7 143.47 186.88 172.79 186.88 143.49 143.35 172.79 143.35 143.49 99.81"/><g class="cls-4"><g class="cls-5"><polygon class="cls-3" points="111.7 96.16 59.79 96.16 111.7 19.04 59.77 19.04 3.51 102.63 55.42 102.63 3.51 179.74 55.43 179.74 3.52 256.86 55.45 256.86 111.71 173.28 59.79 173.28 111.7 96.16"/><polygon class="cls-3" points="168.01 102.63 219.91 102.63 163.65 19.04 111.72 19.04 163.63 96.16 111.72 96.16 163.63 173.28 111.71 173.28 167.97 256.86 219.9 256.86 168 179.74 219.91 179.74 168.01 102.63"/></g></g><g class="cls-6"><g class="cls-7"><polygon class="cls-8" points="-76.61 36.11 -104.69 79.03 -28.42 195.62 27.72 195.62 -76.61 36.11"/></g></g></svg>