<svg id="Layer_1" data-name="Layer 1" xmlns="http://www.w3.org/2000/svg" viewBox="0 0 223.42 290.9"><defs><style>.cls-1{fill:#f6f5ec;}.cls-2{fill:#7b4141;}</style></defs><title>class_titan</title><path class="cls-1" d="M189.13,242.41s-66.61,37.49-77.42,37.49-77.42-37.49-77.42-37.49A41.29,41.29,0,0,1,11,205.25V11H212.42V205.25A41.28,41.28,0,0,1,189.13,242.41Z"/><path class="cls-2" d="M111.71,281.9c-11,0-71.23-33.71-78.35-37.72A43.53,43.53,0,0,1,9,205.25V9H214.42V205.25a43.53,43.53,0,0,1-24.36,38.93C182.94,248.19,122.7,281.9,111.71,281.9ZM13,13V205.25a39.52,39.52,0,0,0,22.16,35.36l.11,0c26.59,15,68.9,37.24,76.44,37.24s49.85-22.27,76.44-37.24l.11,0a39.52,39.52,0,0,0,22.16-35.36V13Z"/><path class="cls-2" d="M53.26,92.63c-1.45-.83-2.63-.15-2.63,1.52v59.16c0,1.67,1.18,2.35,2.63,1.51l51.23-29.57c1.44-.84,1.44-2.2,0-3Z"/><path class="cls-2" d="M118.93,122.21c-1.44.84-1.44,2.2,0,3l51.24,29.57c1.44.84,2.62.16,2.62-1.51V94.15c0-1.67-1.18-2.35-2.62-1.52Z"/><path class="cls-2" d="M165.94,89.55c1.45-.83,1.45-2.2,0-3L114.71,56.94a5.8,5.8,0,0,0-5.26,0L58.22,86.52c-1.44.83-1.44,2.2,0,3l51.23,29.58a5.87,5.87,0,0,0,5.26,0Z"/><path class="cls-2" d="M58.22,157.91c-1.44.83-1.44,2.2,0,3l51.23,29.58a5.8,5.8,0,0,0,5.26,0l51.23-29.58c1.45-.83,1.45-2.2,0-3l-51.23-29.58a5.87,5.87,0,0,0-5.26,0Z"/></svg>