<svg xmlns="http://www.w3.org/2000/svg" viewBox="0 0 223.42 290.9"><defs><style>.cls-1{fill:#010101;}</style></defs><title>class_border</title><path class="cls-1" d="M111.71 290.9c-3.3 0-9.45 0-47.84-20-16.91-8.8-32.94-17.78-34.71-18.77a52.6 52.6 0 0 1-29.16-46.88v-205.25h223.42v205.25a52.64 52.64 0 0 1-29.2 46.92c-1.72 1-17.75 9.93-34.66 18.74-38.4 19.99-44.56 19.99-47.85 19.99zm-109.71-288.9v203.25a50.61 50.61 0 0 0 28.09 45.12c1.81 1 17.82 10 34.7 18.77 38 19.76 43.79 19.76 46.92 19.76s9 0 46.92-19.76c16.89-8.8 32.89-17.75 34.66-18.74a50.66 50.66 0 0 0 28.13-45.15v-203.25z"/></svg>