<svg id="Layer_1" data-name="Layer 1" xmlns="http://www.w3.org/2000/svg" viewBox="0 0 223.42 290.9"><defs><style>.cls-1{fill:#979b9b;}.cls-2{fill:#305c83;}</style></defs><title>class_hunter</title><path class="cls-1" d="M189.13,242.41s-66.61,37.49-77.42,37.49-77.42-37.49-77.42-37.49A41.29,41.29,0,0,1,11,205.25V11H212.42V205.25A41.28,41.28,0,0,1,189.13,242.41Z"/><path class="cls-2" d="M111.71,281.9c-11,0-71.23-33.71-78.35-37.72A43.53,43.53,0,0,1,9,205.25V9H214.42V205.25a43.53,43.53,0,0,1-24.36,38.93C182.94,248.19,122.7,281.9,111.71,281.9ZM13,13V205.25a39.52,39.52,0,0,0,22.16,35.36l.11,0c26.59,15,68.9,37.24,76.44,37.24s49.85-22.27,76.44-37.24l.11,0a39.52,39.52,0,0,0,22.16-35.36V13Z"/><polygon class="cls-2" points="111.7 96.16 82.4 96.16 111.7 52.63 82.39 52.63 50.63 99.81 79.93 99.81 50.63 143.35 79.94 143.35 50.63 186.88 79.95 186.88 111.71 139.7 82.4 139.7 111.7 96.16"/><polygon class="cls-2" points="143.49 99.81 172.79 99.81 141.03 52.63 111.72 52.63 141.02 96.16 111.72 96.16 141.02 139.7 111.71 139.7 143.47 186.88 172.79 186.88 143.49 143.35 172.79 143.35 143.49 99.81"/></svg>