<svg xmlns="http://www.w3.org/2000/svg" viewBox="0 0 223.42 290.9"><defs><style>.cls-1{fill:none;}.cls-2{clip-path:url(#clip-path);}.cls-3{opacity:0.2;}.cls-4{fill:#dfbc46;}.cls-5{fill:#373737;}</style><clipPath id="clip-path"><path class="cls-1" d="M444.89 242.41s-66.61 37.49-77.42 37.49l-77.42-37.49a41.28 41.28 0 0 1-23.3-37.16v-194.25h201.43v194.25a41.29 41.29 0 0 1-23.29 37.16z"/></clipPath></defs><title>class_warlock</title><path class="cls-4" d="M200.34 195.62h56.15l76.25-116.59-28.07-42.92-104.33 159.51z"/><path class="cls-5" d="M189.13 242.41s-66.61 37.49-77.42 37.49l-77.42-37.49a41.29 41.29 0 0 1-23.29-37.16v-194.25h201.42v194.25a41.28 41.28 0 0 1-23.29 37.16z"/><path class="cls-4" d="M111.71 281.9c-11 0-71.23-33.72-78.35-37.72a43.53 43.53 0 0 1-24.36-38.93v-196.25h205.42v196.25a43.53 43.53 0 0 1-24.36 38.93c-7.06 4-67.36 37.72-78.35 37.72zm-98.71-268.9v192.25a39.52 39.52 0 0 0 22.16 35.36h.11c26.59 15 68.9 37.24 76.44 37.24s49.85-22.27 76.44-37.24h.11a39.52 39.52 0 0 0 22.16-35.36v-192.25zM87.61 162.12l22.44-34.32-14.05-21.47-36.49 55.79h28.1zM28.09 162.12h28.09l38.16-58.33-14.05-21.48-52.2 79.81zM111.72 125.26l14.04-21.47-14.04-21.48-14.05 21.48 14.05 21.47zM143.13 82.31l-14.05 21.48 38.16 58.33h28.1l-52.21-79.81zM163.91 162.12l-36.49-55.79-14.05 21.47 22.45 34.32h28.09zM132.49 162.12l-20.77-31.77-20.79 31.77h41.56z"/></svg>