<svg xmlns="http://www.w3.org/2000/svg" viewBox="0 0 223.42 290.9"><defs><style>.cls-1{fill:none;}.cls-2{fill:#373737;}.cls-3{fill:#dfbc46;}.cls-4{clip-path:url(#clip-path);}.cls-5{opacity:0.2;}</style><clipPath id="clip-path"><path class="cls-1" d="M189.13 242.41s-66.61 37.49-77.42 37.49l-77.42-37.49a41.29 41.29 0 0 1-23.29-37.16v-194.25h201.42v194.25a41.28 41.28 0 0 1-23.29 37.16z"/></clipPath></defs><title>class_warlock_hover</title><path class="cls-2" d="M189.13 242.41s-66.61 37.49-77.42 37.49l-77.42-37.49a41.29 41.29 0 0 1-23.29-37.16v-194.25h201.42v194.25a41.28 41.28 0 0 1-23.29 37.16z"/><path class="cls-3" d="M111.71 281.9c-11 0-71.23-33.72-78.35-37.72a43.53 43.53 0 0 1-24.36-38.93v-196.25h205.42v196.25a43.53 43.53 0 0 1-24.36 38.93c-7.12 4.01-67.36 37.72-78.35 37.72zm-98.71-268.9v192.25a39.52 39.52 0 0 0 22.16 35.36h.11c26.59 15 68.9 37.24 76.44 37.24s49.85-22.27 76.44-37.24h.11a39.52 39.52 0 0 0 22.16-35.36v-192.25zM87.61 162.12l22.44-34.32-14.05-21.47-36.49 55.79h28.1zM28.09 162.12h28.09l38.15-58.33-14.04-21.48-52.2 79.81zM111.72 125.26l14.04-21.47-14.04-21.48-14.05 21.48 14.05 21.47zM143.13 82.31l-14.05 21.48 38.16 58.33h28.1l-52.21-79.81zM163.91 162.12l-36.49-55.79-14.05 21.47 22.45 34.32h28.09zM132.49 162.12l-20.77-31.77-20.79 31.77h41.56z"/><g class="cls-5"><path class="cls-3" d="M63.53 195.62l44.86-68.59-28.08-42.91-72.93 111.5h56.15zM-55.42 195.62h56.15l76.25-116.59-28.07-42.92-104.33 159.51zM111.72 121.95l28.07-42.92-28.07-42.92-28.08 42.92 28.08 42.92zM174.51 36.11l-28.08 42.92 76.27 116.59h56.14l-104.33-159.51zM216.04 195.62l-72.93-111.5-28.08 42.91 44.87 68.59h56.14zM153.25 195.62l-41.53-63.5-41.55 63.5h83.08z"/></g></svg>