<svg xmlns="http://www.w3.org/2000/svg" viewBox="0 0 223.42 290.9"><defs><style>.cls-1{fill:#979b9b;}.cls-2{fill:#305c83;}</style></defs><title>class_hunter</title><path class="cls-1" d="M189.13 242.41s-66.61 37.49-77.42 37.49l-77.42-37.49a41.29 41.29 0 0 1-23.29-37.16v-194.25h201.42v194.25a41.28 41.28 0 0 1-23.29 37.16z"/><path class="cls-2" d="M111.71 281.9c-11 0-71.23-33.71-78.35-37.72a43.53 43.53 0 0 1-24.36-38.93v-196.25h205.42v196.25a43.53 43.53 0 0 1-24.36 38.93c-7.12 4.01-67.36 37.72-78.35 37.72zm-98.71-268.9v192.25a39.52 39.52 0 0 0 22.16 35.36h.11c26.59 15 68.9 37.24 76.44 37.24s49.85-22.27 76.44-37.24h.11a39.52 39.52 0 0 0 22.16-35.36v-192.25zM111.7 96.16h-29.3l29.3-43.53h-29.31l-31.76 47.18h29.3l-29.3 43.54h29.31l-29.31 43.53h29.32l31.76-47.18h-29.31l29.3-43.54zM143.49 99.81h29.3l-31.76-47.18h-29.31l29.3 43.53h-29.3l29.3 43.54h-29.31l31.76 47.18h29.32l-29.3-43.53h29.3l-29.3-43.54z"/></svg>