<svg xmlns="http://www.w3.org/2000/svg" viewBox="0 0 223.42 290.9"><defs><style>.cls-1{fill:none;}.cls-2{fill:#979b9b;}.cls-3{fill:#305c83;}.cls-4{clip-path:url(#clip-path);}.cls-5{opacity:0.4;}.cls-6{clip-path:url(#clip-path-2);}.cls-7{opacity:0.2;}.cls-8{fill:#dfbc46;}</style><clipPath id="clip-path"><path class="cls-1" d="M189.13 242.41s-66.61 37.49-77.42 37.49l-77.42-37.49a41.29 41.29 0 0 1-23.29-37.16v-194.25h201.42v194.25a41.28 41.28 0 0 1-23.29 37.16z"/></clipPath><clipPath id="clip-path-2"><path class="cls-1" d="M-62 242.41s-66.6 37.49-77.4 37.49l-77.43-37.49a41.29 41.29 0 0 1-23.29-37.16v-194.25h201.43v194.25a41.29 41.29 0 0 1-23.31 37.16z"/></clipPath></defs><title>class_hunter_hover</title><path class="cls-2" d="M189.13 242.41s-66.61 37.49-77.42 37.49l-77.42-37.49a41.29 41.29 0 0 1-23.29-37.16v-194.25h201.42v194.25a41.28 41.28 0 0 1-23.29 37.16z"/><path class="cls-3" d="M111.71 281.9c-11 0-71.23-33.72-78.35-37.72a43.53 43.53 0 0 1-24.36-38.93v-196.25h205.42v196.25a43.54 43.54 0 0 1-24.36 38.93c-7.06 4-67.36 37.72-78.35 37.72zm-98.71-268.9v192.25a39.52 39.52 0 0 0 22.16 35.36h.11c26.59 15 68.9 37.24 76.44 37.24s49.85-22.27 76.44-37.24h.11a39.52 39.52 0 0 0 22.16-35.36v-192.25zM111.7 96.16h-29.3l29.3-43.53h-29.31l-31.76 47.18h29.3l-29.3 43.54h29.31l-29.31 43.53h29.32l31.76-47.18h-29.31l29.3-43.54zM143.49 99.81h29.3l-31.76-47.18h-29.31l29.3 43.53h-29.3l29.3 43.54h-29.31l31.76 47.18h29.32l-29.3-43.53h29.3l-29.3-43.54z"/><g class="cls-5"><path class="cls-3" d="M111.7 96.16h-51.91l51.91-77.12h-51.93l-56.26 83.59h51.91l-51.91 77.11h51.92l-51.91 77.12h51.93l56.26-83.58h-51.92l51.91-77.12zM168.01 102.63h51.9l-56.26-83.59h-51.93l51.91 77.12h-51.91l51.91 77.12h-51.92l56.26 83.58h51.93l-51.9-77.12h51.91l-51.9-77.11z"/></g><path class="cls-8" d="M-76.61 36.11l-28.08 42.92 76.27 116.59h56.14l-104.33-159.51z"/></svg>