<?xml version="1.0" encoding="utf-8"?>
<!-- Generator: Adobe Illustrator 23.0.0, SVG Export Plug-In . SVG Version: 6.00 Build 0)  -->
<svg version="1.1" id="Layer_1" xmlns="http://www.w3.org/2000/svg" xmlns:xlink="http://www.w3.org/1999/xlink" x="0px" y="0px"
	 viewBox="0 0 609.6 61.5" style="enable-background:new 0 0 609.6 61.5;" xml:space="preserve">
<style type="text/css">
	.st0{fill:#41403D;}
</style>
<g>
	<g>
		<g>
			<g>
				<path class="st0" d="M0,6.2h10.5c15.5,0,28.4,8.3,28.4,25.4c0,17.5-12.6,26-28.6,26H0V6.2z M6.3,51.8h2.2c12.9,0,24-4.9,24-19.8
					c0-15-11.1-19.8-24-19.8H6.3V51.8z"/>
				<path class="st0" d="M78.7,6.2h27.2v5.9H85.1v14.4h20.3v5.9H85.1v19.4h20.9v5.9H78.7V6.2z"/>
				<path class="st0" d="M169.8,16c-1.9-3.2-4.3-4.8-8.1-4.8c-4,0-8.5,2.8-8.5,7.3c0,4,3.9,6.1,7.1,7.4l3.6,1.4
					c7.2,2.9,12.6,6.9,12.6,15.5c0,9.3-7.1,16-16.2,16c-8.2,0-14.6-6.1-15.6-14.4L151,43c-0.1,5.7,4.4,9.8,9.8,9.8s9.3-4.6,9.3-10
					c0-5.5-4.4-7.9-8.7-9.8l-3.5-1.5c-5.8-2.5-11-5.9-11-13c0-8.3,7.3-13.3,14.9-13.3c5.6,0,10.3,2.8,13,7.8L169.8,16z"/>
				<path class="st0" d="M230.5,57.6h-6.3V12.1h-12V6.2h30.3v5.9h-12L230.5,57.6L230.5,57.6z"/>
				<path class="st0" d="M287.2,57.6h-6.3V6.2h6.3V57.6z"/>
				<path class="st0" d="M329.6,3.8l38,40.4v-38h6.3v53.5l-38-40.4v38.3h-6.3V3.8z"/>
				<path class="st0" d="M411.2,6.2h7.3l12.4,22l12.4-22h7.3l-16.5,29v22.4h-6.3V35.3L411.2,6.2z"/>
			</g>
		</g>
		<g>
			<g>
				<g>
					<path class="st0" d="M515.9,32.1c3.5,0,6.4-2.9,6.5-6.5V14.2l0,0c0-3.6-2.9-6.6-6.5-6.6s-6.5,3-6.5,6.6l0,0v11.4
						C509.4,29.2,512.3,32.1,515.9,32.1z M536.8,2.5c-4,0-6.8,2.8-10.3,4.6c-0.2,0.1-0.5,0.2-0.8,0.3v18.2c-0.1,5.4-4.5,9.8-9.8,9.8
						c-5.4,0-9.8-4.5-9.8-10c0,0,0-18.1,0-18.1c-0.3-0.1-0.5-0.2-0.8-0.3c-3.5-1.7-6.2-4.6-10.3-4.6c-6.9,0-11.9,7.2-9.5,13.8
						c1,2.9,3.1,4.5,5.5,6.1c2.9,1.9,5.6,4.3,7.8,7c3.2,4.1,5.4,9,6.4,14.1c0.5,2.4,0.8,5.7,1,7.9c0.5,5.2,4,9.5,9.7,9.5
						c5.7,0,9.2-4.3,9.7-9.5c0.2-2.3,0.5-5.5,1-7.9c1-5.1,3.2-10,6.4-14.1c2.2-2.8,4.8-5.1,7.8-7c2.4-1.6,4.5-3.2,5.5-6.1
						C548.6,9.7,543.6,2.5,536.8,2.5z"/>
				</g>
				<g>
					<g>
						<g>
							<path class="st0" d="M528.6,56.9c0-1.5,1.2-2.8,2.6-2.8c1.5,0,2.6,1.2,2.6,2.8c0,1.5-1.1,2.8-2.6,2.8
								C529.8,59.7,528.6,58.5,528.6,56.9z M533.4,56.9c0-1.3-1-2.3-2.2-2.3c-1.2,0-2.2,1-2.2,2.3c0,1.3,1,2.3,2.2,2.3
								C532.4,59.3,533.4,58.2,533.4,56.9z M532.5,58.4H532l-0.8-1.4h-0.5v1.4h-0.4v-3h1.2c0.5,0,1,0.2,1,0.8c0,0.6-0.4,0.8-0.9,0.8
								L532.5,58.4z M531.1,56.6c0.3,0,1,0.1,1-0.4c0-0.3-0.4-0.4-0.7-0.4h-0.8v0.8H531.1z"/>
						</g>
					</g>
				</g>
				<g>
					<g>
						<g>
							<path class="st0" d="M581.3,37.5c7.5-6,15.6-10.2,15.6-17.9c0-5.6-3-9.4-8.2-9.4c-6,0-9.5,4.4-9.7,12.2h-11.1
								c0-13.7,6.9-22.4,21-22.4c12.9,0,20.2,8.9,20.2,19.3c0,11.4-7.6,16.7-14.9,21.6c-4.6,3-10,6.9-12,10.7h27.4v9.9H567
								C567.4,50,574.5,42.9,581.3,37.5z"/>
						</g>
					</g>
				</g>
			</g>
		</g>
	</g>
</g>
</svg>
